<?xml version="1.0" encoding="UTF-8"?>
<svg xmlns="http://www.w3.org/2000/svg" xmlns:xlink="http://www.w3.org/1999/xlink" viewBox="0 0 409.13 409.13">
  <defs>
    <style>
      .cls-1 {
        fill: url(#linear-gradient);
      }

      .cls-2 {
        fill: #fff;
      }
    </style>
    <linearGradient id="linear-gradient" x1="0" y1="204.56" x2="409.13" y2="204.56" gradientUnits="userSpaceOnUse">
      <stop offset="0" stop-color="#fff33b"/>
      <stop offset="0" stop-color="#ffe831"/>
      <stop offset="0" stop-color="#fee52d"/>
      <stop offset="0" stop-color="#fdd41b"/>
      <stop offset="0" stop-color="#fdca0f"/>
      <stop offset="0" stop-color="#fdc70c"/>
      <stop offset="0" stop-color="#f3903f"/>
      <stop offset=".6" stop-color="#ed683c"/>
      <stop offset="1" stop-color="#f37046"/>
    </linearGradient>
  </defs>
  <g id="Layer_4" data-name="Layer 4">
    <rect class="cls-1" width="409.13" height="409.13"/>
  </g>
  <g id="Layer_7" data-name="Layer 7">
    <g>
      <circle class="cls-2" cx="311.53" cy="45.5" r="10.85"/>
      <g>
        <path class="cls-2" d="M279.61,352.52c-.69.57-1.59.59-2.44.63h-141.23s-2.28-.54-2.28-.54l-70.99-122.9c-.73-1.52-.41-3.07.49-4.43,24.8-38.34,45.08-79.61,68.71-118.59.27-.44.58-1.01.92-1.59.72-1.22,1.59-2.51,2.58-2.91h142.82c.99.58,1.73,1.4,2.4,2.31,2.8,3.83,5.49,10.26,8,14.59,20.52,35.44,41.14,70.83,61.84,106.17.65,1.77.63,3.9-.32,5.54l-70.51,121.73ZM264.92,111.7c-16.53.35-33.12-.26-49.65,0l26.6,43.78,25.44-42.81.2-.97c-1.13-.76-2.04-.02-2.59,0ZM146.09,111.7l27.07,47.99c3.13,2.03,7.01.45,10.34.45,15.77,0,31.99-.04,47.68.4.76.02.99.14,1.5-.61l-28.94-48.23h-57.65ZM131.49,218.05l32.37-55.37-26.48-46.74-32.68,57.64,25.64,43.98,1.15.49ZM276.22,115.94l-28.48,49.13,32.24,53.45,27.89-47.21-31.66-55.36ZM239.74,170.06h-60.71l29.24,51.94c.25.37,1.28,1.24,1.58,1.24h60.24c.29,0,1-.97.51-1.44l-30.87-51.74ZM168.69,172.88l-31.99,54.83,31.75,51.52,31.66-52.54c.06-.69-2.53-5.07-3.11-6.12-7.95-14.64-17.09-31.59-26.06-45.48-.37-.57-1.47-2.75-2.25-2.21ZM313.4,181.36l-27.54,46.79,28,45.91,26.56-46.35-27.03-46.35ZM76.2,223.23h45.18c.07,0,1.21-.55,1.17-.7l-23.28-39.3-23.56,39.03.5.96ZM159.27,283.47l-.37-1.75-30.46-49.08h-52.24l-.5.96,29.21,49.87h54.36ZM241.63,278.77h62.36l.5-.96-27.33-45.16h-61.89l.69,2.37,25.67,43.75ZM206.32,236.41l-1.19.45-30.79,51.55,31.28,51.05,31.31-50.15-30.61-52.9ZM304.45,288.18h-56l-.71,1.16c7.27,12.64,14.19,25.62,21.57,38.22,1.82,3.11,4.25,7.98,6.28,10.66.3.4.43.93,1.09.79l28.94-50.13c.05-.14-1.04-.68-1.17-.7ZM196.45,343.71c.18-.74-.2-1.11-.45-1.67-2.73-6.13-8.85-14.79-12.53-20.88-5-8.27-10.18-17.49-15.53-25.41-.69-1.03-1.34-2.06-2.32-2.86h-54.12c-.07,0-1.22.55-1.17.7l28.7,50.13h57.42ZM215.51,343.71h51.3c1.2,0,.09-1.71-.16-2.2-7.32-14.35-16.64-28.28-24.31-42.5l-27.3,43.77.48.93Z"/>
        <g>
          <circle class="cls-2" cx="104.7" cy="49.19" r="10.85"/>
          <polygon class="cls-2" points="100.93 53.99 137.38 115.94 146.09 111.7 109.85 47.98 100.93 53.99"/>
        </g>
        <g>
          <circle class="cls-2" cx="179.03" cy="60.04" r="10.85"/>
          <polygon class="cls-2" points="173.63 62.6 203.74 111.7 215.27 111.7 182.84 57.2 173.63 62.6"/>
        </g>
        <g>
          <circle class="cls-2" cx="69.09" cy="123.13" r="10.85"/>
          <polygon class="cls-2" points="63.49 123.5 96.18 176.92 104.7 173.58 70.99 118.45 63.49 123.5"/>
        </g>
        <polygon class="cls-2" points="267.31 112.67 311.66 35.63 320.46 40.64 276.22 115.94 267.31 112.67"/>
      </g>
    </g>
  </g>
</svg>